{
    "asset" : {
        "generator" : "Khronos glTF Blender I/O v1.2.75",
        "version" : "2.0"
    },
    "scene" : 0,
    "scenes" : [
        {
            "name" : "Scene",
            "nodes" : [
                0
            ]
        }
    ],
    "nodes" : [
        {
            "mesh" : 0,
            "name" : "pistol_3",
            "scale" : [
                1,
                1,
                0.8888195157051086
            ]
        }
    ],
    "materials" : [
        {
            "doubleSided" : true,
            "emissiveFactor" : [
                0,
                0,
                0
            ],
            "name" : "Metal",
            "pbrMetallicRoughness" : {
                "baseColorFactor" : [
                    0.06662596762180328,
                    0.06847818940877914,
                    0.06662597507238388,
                    1
                ],
                "metallicFactor" : 0,
                "roughnessFactor" : 0.5
            }
        },
        {
            "doubleSided" : true,
            "emissiveFactor" : [
                0,
                0,
                0
            ],
            "name" : "Black",
            "pbrMetallicRoughness" : {
                "baseColorFactor" : [
                    0.02732088416814804,
                    0.02732088416814804,
                    0.029556848108768463,
                    1
                ],
                "metallicFactor" : 0,
                "roughnessFactor" : 0
            }
        },
        {
            "doubleSided" : true,
            "emissiveFactor" : [
                0,
                0,
                0
            ],
            "name" : "LightMetal",
            "pbrMetallicRoughness" : {
                "baseColorFactor" : [
                    0.11443541198968887,
                    0.11697068810462952,
                    0.1247718408703804,
                    1
                ],
                "metallicFactor" : 0,
                "roughnessFactor" : 0.5
            }
        }
    ],
    "meshes" : [
        {
            "name" : "Cube.023",
            "primitives" : [
                {
                    "attributes" : {
                        "POSITION" : 0,
                        "NORMAL" : 1,
                        "TEXCOORD_0" : 2
                    },
                    "indices" : 3,
                    "material" : 0
                },
                {
                    "attributes" : {
                        "POSITION" : 4,
                        "NORMAL" : 5,
                        "TEXCOORD_0" : 6
                    },
                    "indices" : 7,
                    "material" : 1
                },
                {
                    "attributes" : {
                        "POSITION" : 8,
                        "NORMAL" : 9,
                        "TEXCOORD_0" : 10
                    },
                    "indices" : 11,
                    "material" : 2
                }
            ]
        }
    ],
    "accessors" : [
        {
            "bufferView" : 0,
            "componentType" : 5126,
            "count" : 757,
            "max" : [
                1.3929682970046997,
                0.721818745136261,
                0.15433764457702637
            ],
            "min" : [
                -0.3668200969696045,
                -0.44770026206970215,
                -0.15433776378631592
            ],
            "type" : "VEC3"
        },
        {
            "bufferView" : 1,
            "componentType" : 5126,
            "count" : 757,
            "type" : "VEC3"
        },
        {
            "bufferView" : 2,
            "componentType" : 5126,
            "count" : 757,
            "type" : "VEC2"
        },
        {
            "bufferView" : 3,
            "componentType" : 5123,
            "count" : 1182,
            "type" : "SCALAR"
        },
        {
            "bufferView" : 4,
            "componentType" : 5126,
            "count" : 526,
            "max" : [
                1.4524871110916138,
                0.6307832598686218,
                0.1468982845544815
            ],
            "min" : [
                -0.30335766077041626,
                -0.4768260419368744,
                -0.14689840376377106
            ],
            "type" : "VEC3"
        },
        {
            "bufferView" : 5,
            "componentType" : 5126,
            "count" : 526,
            "type" : "VEC3"
        },
        {
            "bufferView" : 6,
            "componentType" : 5126,
            "count" : 526,
            "type" : "VEC2"
        },
        {
            "bufferView" : 7,
            "componentType" : 5123,
            "count" : 858,
            "type" : "SCALAR"
        },
        {
            "bufferView" : 8,
            "componentType" : 5126,
            "count" : 535,
            "max" : [
                1.3929682970046997,
                0.7073690295219421,
                0.1504664272069931
            ],
            "min" : [
                -0.33795028924942017,
                0.3907989263534546,
                -0.15046654641628265
            ],
            "type" : "VEC3"
        },
        {
            "bufferView" : 9,
            "componentType" : 5126,
            "count" : 535,
            "type" : "VEC3"
        },
        {
            "bufferView" : 10,
            "componentType" : 5126,
            "count" : 535,
            "type" : "VEC2"
        },
        {
            "bufferView" : 11,
            "componentType" : 5123,
            "count" : 864,
            "type" : "SCALAR"
        }
    ],
    "bufferViews" : [
        {
            "buffer" : 0,
            "byteLength" : 9084,
            "byteOffset" : 0
        },
        {
            "buffer" : 0,
            "byteLength" : 9084,
            "byteOffset" : 9084
        },
        {
            "buffer" : 0,
            "byteLength" : 6056,
            "byteOffset" : 18168
        },
        {
            "buffer" : 0,
            "byteLength" : 2364,
            "byteOffset" : 24224
        },
        {
            "buffer" : 0,
            "byteLength" : 6312,
            "byteOffset" : 26588
        },
        {
            "buffer" : 0,
            "byteLength" : 6312,
            "byteOffset" : 32900
        },
        {
            "buffer" : 0,
            "byteLength" : 4208,
            "byteOffset" : 39212
        },
        {
            "buffer" : 0,
            "byteLength" : 1716,
            "byteOffset" : 43420
        },
        {
            "buffer" : 0,
            "byteLength" : 6420,
            "byteOffset" : 45136
        },
        {
            "buffer" : 0,
            "byteLength" : 6420,
            "byteOffset" : 51556
        },
        {
            "buffer" : 0,
            "byteLength" : 4280,
            "byteOffset" : 57976
        },
        {
            "buffer" : 0,
            "byteLength" : 1728,
            "byteOffset" : 62256
        }
    ],
    "buffers" : [
        {
            "byteLength" : 63984,
            "uri" : "scene.bin"
        }
    ]
}
