{
    "asset" : {
        "generator" : "Khronos glTF Blender I/O v1.2.75",
        "version" : "2.0"
    },
    "scene" : 0,
    "scenes" : [
        {
            "name" : "Scene",
            "nodes" : [
                0
            ]
        }
    ],
    "nodes" : [
        {
            "mesh" : 0,
            "name" : "Pistol_6"
        }
    ],
    "materials" : [
        {
            "doubleSided" : true,
            "emissiveFactor" : [
                0,
                0,
                0
            ],
            "name" : "Metal",
            "pbrMetallicRoughness" : {
                "baseColorFactor" : [
                    0.06662596762180328,
                    0.06847818940877914,
                    0.06662597507238388,
                    1
                ],
                "metallicFactor" : 0,
                "roughnessFactor" : 0.5
            }
        },
        {
            "doubleSided" : true,
            "emissiveFactor" : [
                0,
                0,
                0
            ],
            "name" : "Black",
            "pbrMetallicRoughness" : {
                "baseColorFactor" : [
                    0.02732088416814804,
                    0.02732088416814804,
                    0.029556848108768463,
                    1
                ],
                "metallicFactor" : 0,
                "roughnessFactor" : 0
            }
        },
        {
            "doubleSided" : true,
            "emissiveFactor" : [
                0,
                0,
                0
            ],
            "name" : "LightMetal",
            "pbrMetallicRoughness" : {
                "baseColorFactor" : [
                    0.11443541198968887,
                    0.11697068810462952,
                    0.1247718408703804,
                    1
                ],
                "metallicFactor" : 0,
                "roughnessFactor" : 0.5
            }
        }
    ],
    "meshes" : [
        {
            "name" : "Cube.014",
            "primitives" : [
                {
                    "attributes" : {
                        "POSITION" : 0,
                        "NORMAL" : 1,
                        "TEXCOORD_0" : 2
                    },
                    "indices" : 3,
                    "material" : 0
                },
                {
                    "attributes" : {
                        "POSITION" : 4,
                        "NORMAL" : 5,
                        "TEXCOORD_0" : 6
                    },
                    "indices" : 7,
                    "material" : 1
                },
                {
                    "attributes" : {
                        "POSITION" : 8,
                        "NORMAL" : 9,
                        "TEXCOORD_0" : 10
                    },
                    "indices" : 11,
                    "material" : 2
                }
            ]
        }
    ],
    "accessors" : [
        {
            "bufferView" : 0,
            "componentType" : 5126,
            "count" : 751,
            "max" : [
                2.0687296390533447,
                0.754179060459137,
                0.15438596904277802
            ],
            "min" : [
                -0.33791375160217285,
                -0.3838096559047699,
                -0.15438605844974518
            ],
            "type" : "VEC3"
        },
        {
            "bufferView" : 1,
            "componentType" : 5126,
            "count" : 751,
            "type" : "VEC3"
        },
        {
            "bufferView" : 2,
            "componentType" : 5126,
            "count" : 751,
            "type" : "VEC2"
        },
        {
            "bufferView" : 3,
            "componentType" : 5123,
            "count" : 1200,
            "type" : "SCALAR"
        },
        {
            "bufferView" : 4,
            "componentType" : 5126,
            "count" : 1938,
            "max" : [
                2.1091668605804443,
                0.7259419560432434,
                0.13102051615715027
            ],
            "min" : [
                -0.33800750970840454,
                -0.40737640857696533,
                -0.13102060556411743
            ],
            "type" : "VEC3"
        },
        {
            "bufferView" : 5,
            "componentType" : 5126,
            "count" : 1938,
            "type" : "VEC3"
        },
        {
            "bufferView" : 6,
            "componentType" : 5126,
            "count" : 1938,
            "type" : "VEC2"
        },
        {
            "bufferView" : 7,
            "componentType" : 5123,
            "count" : 3162,
            "type" : "SCALAR"
        },
        {
            "bufferView" : 8,
            "componentType" : 5126,
            "count" : 789,
            "max" : [
                2.0687296390533447,
                0.7397297024726868,
                0.1504664421081543
            ],
            "min" : [
                -0.3090439438819885,
                0.25689631700515747,
                -0.15046653151512146
            ],
            "type" : "VEC3"
        },
        {
            "bufferView" : 9,
            "componentType" : 5126,
            "count" : 789,
            "type" : "VEC3"
        },
        {
            "bufferView" : 10,
            "componentType" : 5126,
            "count" : 789,
            "type" : "VEC2"
        },
        {
            "bufferView" : 11,
            "componentType" : 5123,
            "count" : 1272,
            "type" : "SCALAR"
        }
    ],
    "bufferViews" : [
        {
            "buffer" : 0,
            "byteLength" : 9012,
            "byteOffset" : 0
        },
        {
            "buffer" : 0,
            "byteLength" : 9012,
            "byteOffset" : 9012
        },
        {
            "buffer" : 0,
            "byteLength" : 6008,
            "byteOffset" : 18024
        },
        {
            "buffer" : 0,
            "byteLength" : 2400,
            "byteOffset" : 24032
        },
        {
            "buffer" : 0,
            "byteLength" : 23256,
            "byteOffset" : 26432
        },
        {
            "buffer" : 0,
            "byteLength" : 23256,
            "byteOffset" : 49688
        },
        {
            "buffer" : 0,
            "byteLength" : 15504,
            "byteOffset" : 72944
        },
        {
            "buffer" : 0,
            "byteLength" : 6324,
            "byteOffset" : 88448
        },
        {
            "buffer" : 0,
            "byteLength" : 9468,
            "byteOffset" : 94772
        },
        {
            "buffer" : 0,
            "byteLength" : 9468,
            "byteOffset" : 104240
        },
        {
            "buffer" : 0,
            "byteLength" : 6312,
            "byteOffset" : 113708
        },
        {
            "buffer" : 0,
            "byteLength" : 2544,
            "byteOffset" : 120020
        }
    ],
    "buffers" : [
        {
            "byteLength" : 122564,
            "uri" : "scene.bin"
        }
    ]
}
