{
    "asset" : {
        "generator" : "Khronos glTF Blender I/O v1.2.75",
        "version" : "2.0"
    },
    "scene" : 0,
    "scenes" : [
        {
            "name" : "Scene",
            "nodes" : [
                0
            ]
        }
    ],
    "nodes" : [
        {
            "mesh" : 0,
            "name" : "pistol_1"
        }
    ],
    "materials" : [
        {
            "doubleSided" : true,
            "emissiveFactor" : [
                0,
                0,
                0
            ],
            "name" : "Wood",
            "pbrMetallicRoughness" : {
                "baseColorFactor" : [
                    0.13286836445331573,
                    0.09084171056747437,
                    0.06847819685935974,
                    1
                ],
                "metallicFactor" : 0,
                "roughnessFactor" : 0
            }
        },
        {
            "doubleSided" : true,
            "emissiveFactor" : [
                0,
                0,
                0
            ],
            "name" : "Metal",
            "pbrMetallicRoughness" : {
                "baseColorFactor" : [
                    0.06662596762180328,
                    0.06847818940877914,
                    0.06662597507238388,
                    1
                ],
                "metallicFactor" : 0,
                "roughnessFactor" : 0.5
            }
        },
        {
            "doubleSided" : true,
            "emissiveFactor" : [
                0,
                0,
                0
            ],
            "name" : "Black",
            "pbrMetallicRoughness" : {
                "baseColorFactor" : [
                    0.02732088416814804,
                    0.02732088416814804,
                    0.029556848108768463,
                    1
                ],
                "metallicFactor" : 0,
                "roughnessFactor" : 0
            }
        },
        {
            "doubleSided" : true,
            "emissiveFactor" : [
                0,
                0,
                0
            ],
            "name" : "LightMetal",
            "pbrMetallicRoughness" : {
                "baseColorFactor" : [
                    0.11443541198968887,
                    0.11697068810462952,
                    0.1247718408703804,
                    1
                ],
                "metallicFactor" : 0,
                "roughnessFactor" : 0.5
            }
        }
    ],
    "meshes" : [
        {
            "name" : "Cube.000",
            "primitives" : [
                {
                    "attributes" : {
                        "POSITION" : 0,
                        "NORMAL" : 1,
                        "TEXCOORD_0" : 2
                    },
                    "indices" : 3,
                    "material" : 0
                },
                {
                    "attributes" : {
                        "POSITION" : 4,
                        "NORMAL" : 5,
                        "TEXCOORD_0" : 6
                    },
                    "indices" : 7,
                    "material" : 1
                },
                {
                    "attributes" : {
                        "POSITION" : 8,
                        "NORMAL" : 9,
                        "TEXCOORD_0" : 10
                    },
                    "indices" : 11,
                    "material" : 2
                },
                {
                    "attributes" : {
                        "POSITION" : 12,
                        "NORMAL" : 13,
                        "TEXCOORD_0" : 14
                    },
                    "indices" : 15,
                    "material" : 3
                }
            ]
        }
    ],
    "accessors" : [
        {
            "bufferView" : 0,
            "componentType" : 5126,
            "count" : 762,
            "max" : [
                0.17958208918571472,
                0.3628385663032532,
                0.1616048365831375
            ],
            "min" : [
                -0.24201878905296326,
                -0.35991379618644714,
                -0.16160494089126587
            ],
            "type" : "VEC3"
        },
        {
            "bufferView" : 1,
            "componentType" : 5126,
            "count" : 762,
            "type" : "VEC3"
        },
        {
            "bufferView" : 2,
            "componentType" : 5126,
            "count" : 762,
            "type" : "VEC2"
        },
        {
            "bufferView" : 3,
            "componentType" : 5123,
            "count" : 1152,
            "type" : "SCALAR"
        },
        {
            "bufferView" : 4,
            "componentType" : 5126,
            "count" : 704,
            "max" : [
                1.4481667280197144,
                0.7490890026092529,
                0.15433765947818756
            ],
            "min" : [
                -0.34863996505737305,
                -0.38889992237091064,
                -0.15433774888515472
            ],
            "type" : "VEC3"
        },
        {
            "bufferView" : 5,
            "componentType" : 5126,
            "count" : 704,
            "type" : "VEC3"
        },
        {
            "bufferView" : 6,
            "componentType" : 5126,
            "count" : 704,
            "type" : "VEC2"
        },
        {
            "bufferView" : 7,
            "componentType" : 5123,
            "count" : 1080,
            "type" : "SCALAR"
        },
        {
            "bufferView" : 8,
            "componentType" : 5126,
            "count" : 312,
            "max" : [
                1.4706672430038452,
                0.6580535173416138,
                0.12593862414360046
            ],
            "min" : [
                -0.34873372316360474,
                -0.4124666750431061,
                -0.12593871355056763
            ],
            "type" : "VEC3"
        },
        {
            "bufferView" : 9,
            "componentType" : 5126,
            "count" : 312,
            "type" : "VEC3"
        },
        {
            "bufferView" : 10,
            "componentType" : 5126,
            "count" : 312,
            "type" : "VEC2"
        },
        {
            "bufferView" : 11,
            "componentType" : 5123,
            "count" : 504,
            "type" : "SCALAR"
        },
        {
            "bufferView" : 12,
            "componentType" : 5126,
            "count" : 535,
            "max" : [
                1.4481667280197144,
                0.7346392869949341,
                0.1504664421081543
            ],
            "min" : [
                -0.3197701573371887,
                0.4180692434310913,
                -0.15046653151512146
            ],
            "type" : "VEC3"
        },
        {
            "bufferView" : 13,
            "componentType" : 5126,
            "count" : 535,
            "type" : "VEC3"
        },
        {
            "bufferView" : 14,
            "componentType" : 5126,
            "count" : 535,
            "type" : "VEC2"
        },
        {
            "bufferView" : 15,
            "componentType" : 5123,
            "count" : 864,
            "type" : "SCALAR"
        }
    ],
    "bufferViews" : [
        {
            "buffer" : 0,
            "byteLength" : 9144,
            "byteOffset" : 0
        },
        {
            "buffer" : 0,
            "byteLength" : 9144,
            "byteOffset" : 9144
        },
        {
            "buffer" : 0,
            "byteLength" : 6096,
            "byteOffset" : 18288
        },
        {
            "buffer" : 0,
            "byteLength" : 2304,
            "byteOffset" : 24384
        },
        {
            "buffer" : 0,
            "byteLength" : 8448,
            "byteOffset" : 26688
        },
        {
            "buffer" : 0,
            "byteLength" : 8448,
            "byteOffset" : 35136
        },
        {
            "buffer" : 0,
            "byteLength" : 5632,
            "byteOffset" : 43584
        },
        {
            "buffer" : 0,
            "byteLength" : 2160,
            "byteOffset" : 49216
        },
        {
            "buffer" : 0,
            "byteLength" : 3744,
            "byteOffset" : 51376
        },
        {
            "buffer" : 0,
            "byteLength" : 3744,
            "byteOffset" : 55120
        },
        {
            "buffer" : 0,
            "byteLength" : 2496,
            "byteOffset" : 58864
        },
        {
            "buffer" : 0,
            "byteLength" : 1008,
            "byteOffset" : 61360
        },
        {
            "buffer" : 0,
            "byteLength" : 6420,
            "byteOffset" : 62368
        },
        {
            "buffer" : 0,
            "byteLength" : 6420,
            "byteOffset" : 68788
        },
        {
            "buffer" : 0,
            "byteLength" : 4280,
            "byteOffset" : 75208
        },
        {
            "buffer" : 0,
            "byteLength" : 1728,
            "byteOffset" : 79488
        }
    ],
    "buffers" : [
        {
            "byteLength" : 81216,
            "uri" : "scene.bin"
        }
    ]
}
